<mxfile host="app.diagrams.net" modified="2022-05-13T07:23:09.854Z" agent="5.0 (Windows NT 10.0; Win64; x64) AppleWebKit/537.36 (KHTML, like Gecko) Chrome/99.0.4844.51 Safari/537.36 Edg/99.0.1150.39" etag="uZ88_VYCOm4z6WRJYQir" version="17.2.4" type="github">
  <diagram id="xkIKJc6atiaXEi-bjVHO" name="Page-1">
    <mxGraphModel dx="1038" dy="556" grid="1" gridSize="10" guides="1" tooltips="1" connect="1" arrows="1" fold="1" page="1" pageScale="1" pageWidth="827" pageHeight="1169" math="0" shadow="0">
      <root>
        <mxCell id="0" />
        <mxCell id="1" parent="0" />
        <mxCell id="DC-o6ZzicrOM8zxUsRtr-11" value="" style="verticalLabelPosition=bottom;verticalAlign=top;html=1;shape=hexagon;perimeter=hexagonPerimeter2;arcSize=6;size=0.27;" vertex="1" parent="1">
          <mxGeometry x="305" y="250" width="220" height="240" as="geometry" />
        </mxCell>
        <mxCell id="DC-o6ZzicrOM8zxUsRtr-4" value="" style="edgeStyle=orthogonalEdgeStyle;rounded=0;orthogonalLoop=1;jettySize=auto;html=1;" edge="1" parent="1" source="DC-o6ZzicrOM8zxUsRtr-1" target="DC-o6ZzicrOM8zxUsRtr-3">
          <mxGeometry relative="1" as="geometry" />
        </mxCell>
        <mxCell id="DC-o6ZzicrOM8zxUsRtr-1" value="开始" style="strokeWidth=2;html=1;shape=mxgraph.flowchart.start_2;whiteSpace=wrap;" vertex="1" parent="1">
          <mxGeometry x="390" y="180" width="50" height="50" as="geometry" />
        </mxCell>
        <mxCell id="DC-o6ZzicrOM8zxUsRtr-7" value="" style="edgeStyle=orthogonalEdgeStyle;rounded=0;orthogonalLoop=1;jettySize=auto;html=1;" edge="1" parent="1" source="DC-o6ZzicrOM8zxUsRtr-3" target="DC-o6ZzicrOM8zxUsRtr-6">
          <mxGeometry relative="1" as="geometry" />
        </mxCell>
        <mxCell id="DC-o6ZzicrOM8zxUsRtr-3" value="输入视频" style="whiteSpace=wrap;html=1;strokeWidth=2;" vertex="1" parent="1">
          <mxGeometry x="377.5" y="260" width="75" height="50" as="geometry" />
        </mxCell>
        <mxCell id="DC-o6ZzicrOM8zxUsRtr-10" value="" style="edgeStyle=orthogonalEdgeStyle;rounded=0;orthogonalLoop=1;jettySize=auto;html=1;" edge="1" parent="1" source="DC-o6ZzicrOM8zxUsRtr-6" target="DC-o6ZzicrOM8zxUsRtr-9">
          <mxGeometry relative="1" as="geometry" />
        </mxCell>
        <mxCell id="DC-o6ZzicrOM8zxUsRtr-6" value="解析视频帧" style="whiteSpace=wrap;html=1;strokeWidth=2;" vertex="1" parent="1">
          <mxGeometry x="377.5" y="340" width="75" height="40" as="geometry" />
        </mxCell>
        <mxCell id="DC-o6ZzicrOM8zxUsRtr-14" value="" style="edgeStyle=orthogonalEdgeStyle;rounded=0;orthogonalLoop=1;jettySize=auto;html=1;" edge="1" parent="1" source="DC-o6ZzicrOM8zxUsRtr-9" target="DC-o6ZzicrOM8zxUsRtr-13">
          <mxGeometry relative="1" as="geometry" />
        </mxCell>
        <mxCell id="DC-o6ZzicrOM8zxUsRtr-9" value="PR_YOLO" style="whiteSpace=wrap;html=1;strokeWidth=2;" vertex="1" parent="1">
          <mxGeometry x="355" y="420" width="120" height="60" as="geometry" />
        </mxCell>
        <mxCell id="DC-o6ZzicrOM8zxUsRtr-16" value="" style="edgeStyle=orthogonalEdgeStyle;rounded=0;orthogonalLoop=1;jettySize=auto;html=1;" edge="1" parent="1" source="DC-o6ZzicrOM8zxUsRtr-13" target="DC-o6ZzicrOM8zxUsRtr-15">
          <mxGeometry relative="1" as="geometry" />
        </mxCell>
        <mxCell id="DC-o6ZzicrOM8zxUsRtr-13" value="解析输出张量" style="whiteSpace=wrap;html=1;strokeWidth=2;" vertex="1" parent="1">
          <mxGeometry x="355" y="560" width="120" height="60" as="geometry" />
        </mxCell>
        <mxCell id="DC-o6ZzicrOM8zxUsRtr-15" value="" style="whiteSpace=wrap;html=1;strokeWidth=2;" vertex="1" parent="1">
          <mxGeometry x="355" y="700" width="120" height="60" as="geometry" />
        </mxCell>
      </root>
    </mxGraphModel>
  </diagram>
</mxfile>
